<?xml version="1.0" encoding="UTF-8" standalone="no"?>
<!-- Created with Inkscape (http://www.inkscape.org/) -->

<svg
   xmlns:dc="http://purl.org/dc/elements/1.1/"
   xmlns:cc="http://creativecommons.org/ns#"
   xmlns:rdf="http://www.w3.org/1999/02/22-rdf-syntax-ns#"
   xmlns:svg="http://www.w3.org/2000/svg"
   xmlns="http://www.w3.org/2000/svg"
   xmlns:sodipodi="http://sodipodi.sourceforge.net/DTD/sodipodi-0.dtd"
   xmlns:inkscape="http://www.inkscape.org/namespaces/inkscape"
   width="282.22223mm"
   height="282.22223mm"
   viewBox="0 0 1000 1000"
   id="svg2"
   version="1.1"
   inkscape:version="0.91 r13725"
   sodipodi:docname="heartwire.svg">
  <defs
     id="defs4">
    <filter
       style="color-interpolation-filters:sRGB;"
       inkscape:label="Drop Shadow"
       id="filter5031">
      <feFlood
         flood-opacity="0.929412"
         flood-color="rgb(0,0,0)"
         result="flood"
         id="feFlood5033" />
      <feComposite
         in="flood"
         in2="SourceGraphic"
         operator="out"
         result="composite1"
         id="feComposite5035" />
      <feGaussianBlur
         in="composite1"
         stdDeviation="4"
         result="blur"
         id="feGaussianBlur5037" />
      <feOffset
         dx="4"
         dy="4"
         result="offset"
         id="feOffset5039" />
      <feComposite
         in="offset"
         in2="SourceGraphic"
         operator="atop"
         result="composite2"
         id="feComposite5041" />
    </filter>
  </defs>
  <sodipodi:namedview
     id="base"
     pagecolor="#ffffff"
     bordercolor="#666666"
     borderopacity="1.0"
     inkscape:pageopacity="0.0"
     inkscape:pageshadow="2"
     inkscape:zoom="0.94316065"
     inkscape:cx="459.88556"
     inkscape:cy="511.26932"
     inkscape:document-units="px"
     inkscape:current-layer="layer1"
     showgrid="true"
     showguides="true"
     inkscape:guide-bbox="true"
     inkscape:window-width="1361"
     inkscape:window-height="855"
     inkscape:window-x="79"
     inkscape:window-y="1"
     inkscape:window-maximized="1"
     fit-margin-top="0"
     fit-margin-left="0"
     fit-margin-right="0"
     fit-margin-bottom="0">
    <sodipodi:guide
       position="499.99999,619.99904"
       orientation="1,0"
       id="guide3490" />
    <sodipodi:guide
       position="913.5847,1089.9689"
       orientation="1,0"
       id="guide4352" />
    <inkscape:grid
       type="xygrid"
       id="grid4360"
       originx="-1.2638096e-07"
       originy="-0.000956754" />
    <sodipodi:guide
       position="539.99999,499.99904"
       orientation="0,1"
       id="guide4362" />
  </sodipodi:namedview>
  <metadata
     id="metadata7">
    <rdf:RDF>
      <cc:Work
         rdf:about="">
        <dc:format>image/svg+xml</dc:format>
        <dc:type
           rdf:resource="http://purl.org/dc/dcmitype/StillImage" />
        <dc:title />
      </cc:Work>
    </rdf:RDF>
  </metadata>
  <g
     inkscape:groupmode="layer"
     id="layer2"
     inkscape:label="Layer 2"
     transform="translate(0,-52.361328)">
    <path
       style="fill:#000000;fill-opacity:1;stroke:none;stroke-width:10;stroke-linejoin:round;stroke-miterlimit:4;stroke-dasharray:none;stroke-opacity:1"
       d="m 0,52.361328 0,999.999972 1000,0 0,-999.999972 -1000,0 z"
       id="rect4350"
       inkscape:connector-curvature="0" />
  </g>
  <g
     inkscape:label="Layer 1"
     inkscape:groupmode="layer"
     id="layer1"
     transform="translate(0,-52.361328)">
    <path
       id="use4300"
       style="fill:none;fill-rule:evenodd;stroke:#ff2930;stroke-width:40;stroke-linecap:butt;stroke-linejoin:round;stroke-miterlimit:4;stroke-dasharray:none;stroke-opacity:1;filter:url(#filter5031)"
       d="m 684.1978,232.13024 c 47.1034,4.48319 90.6726,43.35097 114.0779,84.47303 22.5827,39.67689 23.0712,91.53872 13.8726,136.25584 -10.1603,49.39276 -43.9166,91.38549 -73.4837,132.2348 -19.4923,26.9302 -45.2511,48.71519 -67.6776,73.25573 -21.5623,23.59487 -42.682,47.59242 -64.3021,71.1343 -21.5912,23.51031 -42.8914,47.31262 -65.3269,70.01858 -11.0447,11.1779 -34.0043,32.0453 -38.9026,32.57047 -4.8984,-0.52517 -27.858,-21.39257 -38.9027,-32.57047 -22.4355,-22.70596 -43.7357,-46.50827 -65.3268,-70.01858 -21.6202,-23.54188 -42.7399,-47.53943 -64.3022,-71.1343 -22.4265,-24.54054 -48.1853,-46.32553 -67.6776,-73.25573 -29.5671,-40.84931 -63.3234,-82.84204 -73.4837,-132.2348 -9.1986,-44.71712 -8.7101,-96.57895 13.8726,-136.25584 23.4053,-41.12206 66.9745,-79.98984 114.0779,-84.47303 65.4565,-6.22999 129.6771,24.43842 181.7425,85.3734 52.0653,-60.93498 116.2859,-91.60339 181.7424,-85.3734 z m 344.4876,467.13942 c -60.4083,70.29456 -127.6667,127.83645 -210.1827,156.47339 -71.284,24.73889 -151.7687,18.29644 -226.2746,6.36796 -29.6918,-4.75369 -89.7727,-30.56319 -89.7727,-30.56319 0,0 -60.081,25.8095 -89.7728,30.56319 C 338.1767,874.03949 257.692,880.48194 186.408,855.74305 103.892,827.10611 36.63364,769.56422 -23.77476,699.26966"
       inkscape:connector-curvature="0"
       sodipodi:nodetypes="ssssssscssssssscscsscssc" />
  </g>
</svg>
